HIERARCHY
ROOT Hips
{
  OFFSET 267.745 86.9975 -272.335
  CHANNELS 6 Xposition Yposition Zposition Zrotation Xrotation Yrotation
  JOINT LeftUpLeg
  {
    OFFSET 8.64259 1.95398 -2.38835
    CHANNELS 3 Zrotation Xrotation Yrotation
    JOINT LeftLeg
    {
      OFFSET 43.7702 0 0
      CHANNELS 3 Zrotation Xrotation Yrotation
      JOINT LeftFoot
      {
        OFFSET 40.6238 0 0
        CHANNELS 3 Zrotation Xrotation Yrotation
        JOINT LeftToeBase
        {
          OFFSET 12.7242 0 0
          CHANNELS 3 Zrotation Xrotation Yrotation
          End Site
          {
            OFFSET 0 0 0
          }
        }
      }
    }
  }
  JOINT RightUpLeg
  {
    OFFSET -8.2249 1.95398 -2.59336
    CHANNELS 3 Zrotation Xrotation Yrotation
    JOINT RightLeg
    {
      OFFSET 43.5653 0 0
      CHANNELS 3 Zrotation Xrotation Yrotation
      JOINT RightFoot
      {
        OFFSET 40.6238 0 0
        CHANNELS 3 Zrotation Xrotation Yrotation
        JOINT RightToeBase
        {
          OFFSET 12.7242 0 0
          CHANNELS 3 Zrotation Xrotation Yrotation
          End Site
          {
            OFFSET 0 0 0
          }
        }
      }
    }
  }
  JOINT Spine
  {
    OFFSET 0.165834 0.87714 6.61349
    CHANNELS 3 Zrotation Xrotation Yrotation
    JOINT Spine1
    {
      OFFSET 7.38963 1.71661e-005 0
      CHANNELS 3 Zrotation Xrotation Yrotation
      JOINT Spine2
      {
        OFFSET 11.9445 1.14441e-005 0
        CHANNELS 3 Zrotation Xrotation Yrotation
        JOINT Spine3
        {
          OFFSET 14.7254 4.19617e-005 0
          CHANNELS 3 Zrotation Xrotation Yrotation
          JOINT Spine4
          {
            OFFSET 10.9679 0 0
            CHANNELS 3 Zrotation Xrotation Yrotation
            JOINT RightShoulder
            {
              OFFSET 2.46616 -1.6653 3.69651
              CHANNELS 3 Zrotation Xrotation Yrotation
              JOINT RightArm
              {
                OFFSET 13.0012 0 0
                CHANNELS 3 Zrotation Xrotation Yrotation
                JOINT RightForeArm
                {
                  OFFSET 28.7848 1.52588e-005 0
                  CHANNELS 3 Zrotation Xrotation Yrotation
                  JOINT RightHand
                  {
                    OFFSET 26.5688 1.52588e-005 0
                    CHANNELS 3 Zrotation Xrotation Yrotation
                    End Site
                    {
                      OFFSET 0 0 0
                    }
                  }
                }
              }
            }
            JOINT LeftShoulder
            {
              OFFSET 2.38034 -1.29275 -3.7523
              CHANNELS 3 Zrotation Xrotation Yrotation
              JOINT LeftArm
              {
                OFFSET 16.3182 6.10352e-005 0
                CHANNELS 3 Zrotation Xrotation Yrotation
                JOINT LeftForeArm
                {
                  OFFSET 27.0901 0 0
                  CHANNELS 3 Zrotation Xrotation Yrotation
                  JOINT LeftHand
                  {
                    OFFSET 24.5451 1.52588e-005 0
                    CHANNELS 3 Zrotation Xrotation Yrotation
                    End Site
                    {
                      OFFSET 0 0 0
                    }
                  }
                }
              }
            }
            JOINT Neck
            {
              OFFSET 5.0226 -0.0266342 0
              CHANNELS 3 Zrotation Xrotation Yrotation
              JOINT Head
              {
                OFFSET 6.69364 2.86102e-005 0
                CHANNELS 3 Zrotation Xrotation Yrotation
                End Site
                {
                  OFFSET 0 0 0
                }
              }
            }
          }
        }
      }
    }
  }
}
MOTION
Frames:	17
Frame Time:	0.0416667
-77.049 87.8323 80.6905 89.9321 47.8145 92.0188 -175.319 37.7825 89.6428 -26.8258 14.457 -2.36575 48.5611 -7.86055 8.68372 39.861 -1.1775 -3.20083 171.74 7.22525 88.4801 -61.2065 -8.42953 -0.391047 51.2117 7.17406 10.5538 51.2259 -5.6012 -0.427649 -0.121158 9.176 -89.4472 8.52057 0.00270496 1.09309 -3.15084 0.0508022 1.09191 -25.6825 -0.325928 1.04338 -5.6699 -0.325937 1.04337 98.7542 -57.6467 -87.0255 17.9181 -23.0939 -4.30911 0.197144 -9.88314 -23.8925 -7.77871 -0.252231 -1.49904 -84.114 -51.2429 87.4833 -22.1037 -5.23673 -14.3186 -1.11518 23.9198 -2.54445 2.12712 -0.399462 -12.2215 10.8392 1.1822 -4.48202 -14.7022 1.72205 5.18748 
-74.1778 88.2957 76.7215 83.6528 50.6656 97.1016 -174.052 41.2263 88.2628 -32.0654 16.6218 -3.35063 53.4833 -3.77898 8.95359 43.2136 -1.63542 -2.33827 170.019 27.0653 90.1004 -74.3775 -9.74167 -0.0789787 56.046 6.04932 16.2565 49.2677 -4.88316 1.77557 -0.200425 10.3587 -89.6376 6.16 -0.247146 0.716765 -5.5111 -0.215365 0.726936 -28.0455 -0.451163 0.609341 -8.03286 -0.451157 0.609337 98.9268 -57.713 -86.7756 18.2729 -21.0934 3.58324 0.182377 -15.5228 -19.4734 -5.83287 -0.229853 -0.720998 -83.7391 -49.8123 87.8949 -20.8025 -3.04006 -13.721 0.493816 12.2476 -13.4016 4.48165 -0.563062 -12.2671 17.727 0.66033 -3.93252 -10.1221 1.48906 5.80269 
-72.0124 87.6322 72.9589 73.4049 53.3919 106.311 -175.508 47.6847 86.7246 -39.1252 17.2379 -2.13029 58.1303 0.931656 9.68987 51.0809 -2.23889 2.57929 170.255 46.3648 91.2987 -69.876 -14.8198 1.21684 64.3973 3.77933 19.6407 54.8748 -5.38233 7.01719 -0.514284 11.236 -90.1473 4.3991 -1.08755 -0.278313 -7.27145 -1.09873 -0.230181 -29.8091 -0.953634 -0.592318 -9.79643 -0.953623 -0.592319 100.002 -55.7913 -85.3176 21.9932 -16.2605 15.0159 1.42873 -13.9483 -18.1782 -10.3424 -0.464798 0.0249257 -83.7416 -47.974 87.6856 -21.8617 -3.16196 -7.61707 -0.669229 7.22382 -15.6853 1.87746 -0.445956 -14.01 23.4245 0.77035 -3.95169 -5.43459 1.99902 7.10928 
-69.5646 84.7696 69.3268 68.3737 54.0159 109.537 -176.459 53.1047 83.6108 -50.4148 15.5991 -0.60673 62.1895 7.22271 15.2511 59.494 -2.22564 7.82131 174.681 61.4256 86.4072 -62.4247 -9.48034 0.922521 65.1671 3.58423 18.2096 54.6575 -5.39182 6.8033 -0.572814 12.1964 -90.438 2.4744 -1.31463 -0.876908 -9.19614 -1.35197 -0.818215 -31.7323 -0.990329 -1.23145 -11.7196 -0.990336 -1.23147 99.5283 -55.952 -86.0004 25.3369 -8.58181 26.1976 2.29855 -10.3396 -17.5479 -13.0197 -0.459618 -1.01425 -86.4055 -49.4698 83.7975 -21.8903 -5.55271 -4.86347 -2.67315 2.10929 -8.78743 1.39045 -0.429973 -14.6111 26.8139 0.300465 -4.40168 -0.300337 2.21827 8.95186 
-65.0494 79.8269 64.0849 66.3101 56.3278 108.225 -174.519 55.7131 76.5556 -64.2536 15.6344 0.133744 65.8696 15.3946 25.0544 60.5729 -2.30091 7.68771 -175.814 69.6882 75.3413 -63.0875 -12.1556 -0.386216 64.0558 4.51268 18.5097 55.6214 -5.68686 6.12966 -0.367473 12.6114 -90.8372 1.64008 -1.05408 -1.66081 -10.0315 -1.12612 -1.61282 -32.5591 -0.506304 -1.90074 -12.5465 -0.506294 -1.90073 98.2345 -59.1231 -87.6697 27.7245 -4.74825 24.8203 4.3125 -7.14228 -11.4222 -7.84451 -0.112303 -3.74702 -89.9878 -53.2857 79.1671 -21.01 -3.81121 -18.3887 -4.28314 2.0812 -0.00643303 4.02947 -0.615479 -13.7357 24.3976 -1.18343 -0.569678 5.10213 -0.212299 8.81953 
-58.1488 75.2211 57.0239 70.18 56.9036 106.118 -177.047 52.5572 77.813 -77.0389 16.5648 1.66975 65.4631 21.6745 37.1169 65.0909 -1.30928 13.2074 -177.056 69.5981 81.1844 -78.6623 -8.77025 -2.36955 68.6761 0.746444 14.4108 48.182 -4.32489 5.19752 0.0498665 12.1325 -91.1396 2.59989 -0.346189 -2.22874 -9.07292 -0.443921 -2.21135 -31.5927 0.339456 -2.22977 -11.58 0.33946 -2.22976 94.6297 -61.4675 -92.4122 15.3489 -15.1092 -1.44432 6.0378 -5.70706 -11.3424 -1.09718 -0.0327427 -4.83073 -91.7653 -54.7131 76.9219 -18.0145 -1.88098 -42.3288 -4.55734 1.97641 -0.757091 10.6927 -1.03882 -12.7279 25.0339 -0.809131 4.17483 2.92186 -1.93195 5.23899 
-50.3804 73.0818 49.1143 75.9841 55.5848 105.002 176.44 46.3422 85.4913 -88.6398 14.2848 3.23462 67.8437 21.5281 31.3107 72.8689 0.932629 21.544 172.328 62.7025 97.1802 -86.3899 -14.4326 -1.61474 66.1354 -8.21407 -8.26256 66.3578 -7.82335 6.11897 -0.287686 11.0299 -91.0792 4.79771 -1.01756 -2.09533 -6.87447 -1.10877 -2.04855 -29.3966 -0.340992 -2.30417 -9.38396 -0.34098 -2.30418 92.5177 -51.3014 -97.0886 5.5025 -2.74631 -48.5881 3.18087 -7.75564 -16.8986 -7.00749 -0.158148 -2.76427 -91.729 -46.1126 74.8893 -11.2946 -9.80522 -66.9473 0.112338 9.69356 -9.92682 21.1758 -1.19036 -9.71876 24.7014 0.748205 1.81866 -8.59922 -0.249024 7.31737 
-40.7806 76.7319 39.0596 75.701 50.9002 102.988 178.639 33.3912 85.2254 -81.634 16.1039 3.06408 66.4053 17.484 27.6608 77.2834 1.93071 23.7929 175.794 50.85 95.5706 -83.6504 -15.4814 -1.88672 70.6622 -12.6826 -9.24771 70.4218 -8.97932 4.83815 -0.130889 9.4856 -90.6279 7.89837 -0.534973 -1.20928 -3.77299 -0.58768 -1.18457 -26.3039 -0.14684 -1.31413 -6.29122 -0.146844 -1.31414 96.8515 -26.7648 -93.7425 11.2217 17.6918 -77.8778 -6.20177 -12.6908 -31.0485 -10.5545 -0.230263 -2.70396 -88.6927 -31.5316 75.977 -10.9068 -22.703 -84.901 14.4963 17.0874 -29.8767 19.4722 -0.990366 -9.03281 25.787 0.86521 -2.01371 -21.2552 0.131758 9.77267 
-26.0329 87.9698 23.6597 76.1158 46.7076 100.151 -177.664 11.968 88.6524 -52.8807 15.3008 2.45342 46.5488 -7.33927 0.737243 72.7194 -5.43065 -1.64298 179.006 26.6499 88.6896 -59.8628 -21.4173 -2.10732 63.5938 1.84916 10.4192 60.3578 -6.07793 8.82712 0.0652944 7.65467 -89.9641 11.5645 0.146717 0.0564341 -0.106471 0.149065 0.0499148 -22.6417 0.122994 0.0979254 -2.62902 0.122973 0.0979157 101.041 -13.1825 -85.2959 11.3437 30.8598 -82.6122 -9.03625 -11.8266 -37.4829 -9.13511 -0.0326514 -5.02093 -85.05 -23.4605 81.1221 -7.58837 -33.2248 -83.753 22.5941 15.5864 -46.8572 23.5157 -0.879783 -7.80288 3.35184 1.78454 -7.13255 -14.0449 1.94802 11.6327 
-10.4143 101.256 8.83114 78.681 52.6381 97.7577 -178.943 14.1758 91.1672 -56.8618 15.2293 3.6832 33.4152 -15.573 -8.94605 17.3273 -0.118206 7.71506 177.147 -3.14603 84.4973 -17.8678 -16.0166 -2.22284 24.4573 19.6355 36.4638 7.78964 4.87115 1.83287 -0.0729816 6.88484 -89.7763 13.1052 -0.0375064 0.443283 1.43423 -0.0179422 0.444488 -21.1002 -0.169001 0.411511 -1.08749 -0.168975 0.411521 104.24 -12.6606 -76.1416 6.59859 40.9926 -71.4414 -4.77787 -6.07921 -32.6664 -9.61976 0.0361337 -5.93026 -82.8065 -25.7292 86.3832 -0.101469 -37.3163 -69.939 14.9052 10.836 -39.1782 26.1071 -0.506519 -6.00452 -20.5982 1.49629 -10.2826 -5.8377 0.97376 11.4519 
0.445472 111.478 -2.26466 86.7211 50.7334 93.4411 -177.664 29.8846 92.9015 -64.27 17.4869 1.85176 39.8023 -12.5403 -4.26502 13.7426 -0.236785 7.81099 174.64 -0.852637 90.3866 -52.9975 -24.6998 -1.63157 27.5084 20.6293 24.5198 -14.9235 13.3859 -3.18875 0.387781 8.06646 -89.9605 10.7443 0.791034 0.0268544 -0.926359 0.79144 -0.00798786 -23.4638 0.746385 0.263365 -3.45113 0.746371 0.26336 103.923 -10.9649 -77.0112 -19.7871 40.9992 -29.823 3.7343 11.0889 -21.1376 -8.87087 -0.0335316 -5.05097 -82.0279 -23.0299 87.5513 22.4579 -31.9555 -27.2484 4.14404 5.87291 -16.3731 19.5074 -0.52889 -6.57286 -18.8315 2.82957 -12.9685 -3.60028 2.64067 14.206 
10.8105 117.081 -13.0109 88.2328 42.7421 94.5571 -179.472 37.6598 96.2409 -45.3798 19.3174 2.19019 37.2231 -14.1579 -6.42949 21.3212 0.469544 1.97366 178.989 15.6453 81.4564 -99.1001 -28.5126 -3.13576 36.7178 16.534 11.7812 -1.34335 10.8703 -8.00398 0.262703 9.12058 -89.7639 8.63117 0.628723 0.423255 -3.03967 0.646735 0.395168 -25.5751 0.472455 0.59264 -5.56242 0.472452 0.592645 101.232 -15.7556 -84.3856 -27.0926 7.31029 -0.0212615 6.03735 8.86067 -9.67005 -5.87049 -0.0670223 -4.17105 -81.553 -24.4971 88.8235 18.5581 -13.0897 13.238 -1.75354 9.04682 -1.45021 10.6716 -0.499368 -7.97997 -15.084 6.3173 -18.8383 -3.19653 6.72489 22.4973 
20.6578 116.438 -24.711 90.7433 34.8777 97.0941 -179.779 36.9227 102.319 -28.2899 15.818 3.57371 40.5011 -12.4998 -3.70514 25.8251 1.05174 -4.94077 175.709 37.3504 85.4641 -110.425 -27.9729 -2.63486 43.1655 11.9327 6.79398 20.9556 2.83003 -5.23896 0.538359 10.1887 -89.8499 6.49512 1.13919 0.25422 -5.17534 1.14928 0.203827 -27.7136 1.01011 0.584871 -7.70096 1.01011 0.584864 99.7608 -26.329 -87.4141 -15.1303 -6.27191 20.991 6.05476 -4.58902 -4.13699 -1.08464 -0.0306744 -4.31596 -79.5972 -33.1077 93.5263 -1.24708 -15.1388 35.922 -0.387348 11.0103 -0.000591634 4.33162 -0.434331 -10.235 -9.16354 7.67389 -17.6229 -5.40395 8.46861 24.1875 
31.7057 108.204 -37.0747 95.3006 33.7838 97.8642 -173.768 32.8841 104.895 -18.0039 8.28325 1.01482 34.76 -15.776 -7.14491 33.5096 0.146482 -8.64849 162.247 41.9892 95.029 -77.017 -27.4748 3.12443 49.4833 10.9429 17.2752 37.7601 -2.02373 -1.51095 0.558955 11.0269 -90.185 4.82119 1.04087 -0.376692 -6.84943 1.02327 -0.422145 -29.388 1.10596 -0.0464276 -9.37538 1.10597 -0.0464177 100.605 -34.2001 -85.2282 1.12639 0.581598 42.7054 4.67172 -0.571522 -1.74216 -4.10632 -0.0605752 -3.93393 -77.5342 -43.734 97.4023 -16.7222 -19.5926 46.7986 -0.32395 -0.199055 0.00032613 6.88113 -0.360746 -7.76166 -9.36552 7.80575 -13.5394 -2.38438 8.93955 22.8145 
44.2523 93.1111 -48.3709 101.354 39.8138 91.6448 -170.294 33.4679 100.342 -39.7602 15.2923 -1.18923 49.9533 -5.07056 7.53532 39.9061 -1.22309 -7.11896 164.323 39.4495 93.493 -39.8495 -22.0016 9.34459 41.2319 15.7733 26.0173 69.8458 -8.82809 5.29092 -0.560561 11.6548 -89.8293 3.56084 -1.05218 0.331337 -8.10997 -1.0366 0.377313 -30.6454 -1.10305 -0.000176313 -10.6327 -1.10303 -0.000177245 103.607 -48.7044 -79.7705 10.9108 12.1919 44.6464 1.72502 7.47794 0.476346 -2.7972 -0.0399308 -4.92003 -80.197 -53.0652 93.4372 -18.4369 -18.4333 31.9665 -0.258988 -2.97932 7.92924e-005 12.329 -0.49135 -7.36876 1.5406 7.98379 -17.1469 -9.23769 9.41623 25.4295 
54.8028 75.9866 -56.8512 104.991 54.2379 83.032 -175.71 45.9872 90.9808 -82.611 23.2153 1.45089 63.8359 13.2084 27.8566 54.3947 -2.18476 4.25692 155.529 53.1009 94.5566 -67.9412 -25.1316 6.50778 55.3351 5.72728 6.64749 36.7879 -2.02543 4.8143 -1.67065 11.2605 -90.088 4.35854 -3.37524 -0.127446 -7.30795 -3.37755 0.0213938 -29.8764 -3.18078 -1.13699 -9.86378 -3.18078 -1.137 107.776 -64.4991 -74.7823 17.1519 8.68552 12.8304 3.84715 13.3224 -2.94061 4.51133 -0.120673 -7.01211 -86.6982 -52.2765 83.8411 -14.1921 -12.256 -20.5941 -1.43773 2.15204 0.53404 11.4054 -0.522976 -7.98876 12.236 2.82274 -15.2815 -12.944 4.79838 21.7555 
61.0437 66.1261 -62.5895 114.852 55.7686 75.1232 179.282 51.7487 92.8765 -108.862 22.3854 2.53987 62.1645 9.44355 22.2484 66.3159 -2.24459 9.15925 153.892 57.3959 101.539 -94.9141 -24.7251 0.69631 57.2981 -1.39948 -10.66 55.6436 -5.68816 6.14909 -1.4446 11.7435 -90.4673 3.3714 -3.07182 -0.928039 -8.29617 -3.10969 -0.79183 -30.8517 -2.65085 -1.80882 -10.839 -2.65085 -1.80883 96.5329 -55.4133 -90.3938 8.36711 -1.62109 -30.5533 9.53074 13.6581 -24.0683 2.66063 -0.10304 -7.72628 -91.9439 -38.8572 72.4776 -11.9269 -14.5463 -67.7312 3.82271 14.5549 -7.87184 15.9398 -0.917163 -9.49524 13.8192 1.17442 -8.3326 -13.3668 2.21761 13.3757 
